<svg width="64" height="64" viewBox="0 0 64 64" fill="none" xmlns="http://www.w3.org/2000/svg">
<path d="M28.376 27.224C28.376 29.08 27.736 30.6267 26.456 31.864C25.1973 33.08 23.2667 33.688 20.664 33.688H16.376V43H13.464V20.696H20.664C23.1813 20.696 25.0907 21.304 26.392 22.52C27.7147 23.736 28.376 25.304 28.376 27.224ZM20.664 31.288C22.2853 31.288 23.48 30.936 24.248 30.232C25.016 29.528 25.4 28.5253 25.4 27.224C25.4 24.472 23.8213 23.096 20.664 23.096H16.376V31.288H20.664Z" fill="#F56F6C"/>
<path d="M42.8753 12.856L34.1073 48.44H31.2273L39.9633 12.856H42.8753Z" fill="white"/>
<path d="M50.126 20.696V43H47.214V20.696H50.126Z" fill="#252932"/>
<g style="mix-blend-mode:overlay">
<circle cx="32" cy="32" r="32" fill="#195962"/>
</g>
</svg>